# xmcd
#
# Track frame offsets:
#	150
#	24293
#	52055
#	73358
#	100448
#	115838
#	143315
#
# Disc length: 2197
#
# Revision: 2
# Processed by: cddbd v1.5.1PL0 Copyright (c) Steve Scherf et al.
# Submitted via: CDex 1.51
# Normalized: r0:DSETVAR1,TDELIM( - ),TSWAP
#
DISCID=5e089307
DTITLE=Various Artist - The Master Grooves of Rudy van Gelder - The Legendary Blue Note Masterpieces nr 6
DYEAR=2002
DGENRE=Jazz
TTITLE0=Horace Silver - Liberated Brother
TTITLE1=Sonny Rollins - Wail March
TTITLE2=Jackie McLean - On the Lion
TTITLE3=Stanley Turrentine - The Hustler
TTITLE4=Miles Davis - Kelo
TTITLE5=Hank Mobley - My Groove You Move
TTITLE6=Lee Morgan - The Lion And The Wolf
EXTD=YEAR: 2002
EXTT0=
EXTT1=
EXTT2=
EXTT3=
EXTT4=
EXTT5=
EXTT6=
PLAYORDER=
